<svg version="1" xmlns="http://www.w3.org/2000/svg" width="372" height="372" viewBox="0 0 279.000000 279.000000"><path d="M0 139.5V279h279V0H0v139.5zm260 0V260H19V19h241v120.5z"/><path d="M74.5 24c-.3.5-.8 3.5-1 6.6-1 15-4.6 32.1-8.1 37.9-1.3 2.2-4.4 6.2-7 9-13.5 14.6-28.2 38.4-33.8 54.7-6 17.9-5.3 26.5 3 33.8 7.2 6.3 17.3 2 28.1-11.8l1.9-2.4 6.8 6.5c5.6 5.4 7.2 6.5 9.4 6.1 18.4-3.1 37.8-15.9 44.5-29.4 4.2-8.5 3.4-13.8-3.8-23.7-3.5-4.8-7-7.1-13.3-8.7l-4.4-1.2 13.8-8.2c23.2-13.7 37.6-26 42.7-36.2 2.8-5.5 2.8-8.9.2-14.4-2.4-5-10.8-13.2-14.2-13.9-7.9-1.5-20.8 2.1-33.8 9.4-8.4 4.7-10.5 5.2-10.5 2.6C95 37 76 21.6 74.5 24zM139 43.9c0 .5-2.9 3.8-6.5 7.5-6.4 6.3-41.7 31.1-43.4 30.4-1.7-.6 2.8-11.2 6.1-14.3 4-3.7 15.3-11.9 22.5-16.2 10.6-6.5 21.3-10.2 21.3-7.4zm-54 73.6c2.5.4 5.6.9 7 1.1 4.7.7 11.1 2.7 11.6 3.5.3.5-1.8 3.3-4.6 6.3-7 7.5-23 14.4-33.3 14.6h-2.8l4.5-8.8c2.5-4.8 5.6-11.4 7-14.6 2.4-5.5 2.7-5.8 4.4-4.4.9.9 3.7 1.9 6.2 2.3zm-42.4 15.2c-1.4 2.6-2.5 4.5-2.6 4.1 0-1.2 4.3-9.8 4.8-9.4.2.2-.8 2.6-2.2 5.3zM164.7 76.7c-.3.4-1.9 5.5-3.6 11.3-12.4 42.6-34.6 100.5-52.5 136.9-2.5 5.2-4.6 10-4.6 10.7 0 .7 2.6 3.1 5.8 5.3 3.1 2.1 6.8 4.8 8.1 6 1.4 1.2 2.9 2 3.5 1.8.6-.1 7-11.9 14.1-26 7.2-14.1 13.3-25.7 13.6-25.7 2.4 0 16.1 38.3 15.1 42.2-.1.4 1.6 1.9 3.8 3.3 2.3 1.4 5.9 4.2 8.2 6.3l4 3.6 2.4-2.9c2.8-3.6 14.2-24.1 25-45.3 4.3-8.5 8.6-15.8 9.5-16.3 1-.5 4.3-1.1 7.5-1.4 8.6-.9 11.8-2.8 16.7-10.4 4.7-7.1 8.7-14.4 8.7-16 0-.5-.7-1.6-1.5-2.5-1.3-1.3-2.4-1.1-9.5 1.5-4.4 1.6-8.5 2.9-9.1 2.9-1.8 0 .3-4.7 15.4-35.9 2.8-5.8 5-11.3 5-12.4-.2-1.9-21.2-23.7-22.9-23.7-1.2 0-2.1 2.2-8.7 20.5-13.3 36.5-21.9 57.9-23.7 59-1.4.9-33.9 5.7-35 5.3-.4-.2 3-8.9 7.5-19.3 9-21.1 21.5-52 22-54.6.3-1.5-4.4-6.5-20.2-21.2-2.2-2.2-4.3-3.5-4.6-3zM186 192.4c0 1.3-9.9 22.6-10.5 22.6-.9 0-10.4-19.9-9.7-20.4.4-.2 3.9-.7 7.7-1.1 3.9-.4 7.1-.8 7.2-.9.4-.4 5.3-.5 5.3-.2z"/></svg>