<svg id="Layer_1" data-name="Layer 1" xmlns="http://www.w3.org/2000/svg" viewBox="0 0 279 279"><defs><style>.cls-1{fill:#fff;}.cls-2{fill:none;stroke:#fff;stroke-miterlimit:10;stroke-width:19px;}</style></defs><title>DavidsIconWhite</title><path class="cls-1" d="M144.58,35.16A36.06,36.06,0,0,0,132.19,20a7.58,7.58,0,0,0-4.32-1.57A46.29,46.29,0,0,0,114,20.16c-9.08,2.54-17.27,7-25.2,11.92C87,33.24,85.75,33.92,85.05,31a10.39,10.39,0,0,0-2-3.53c-4.53-6-10.64-10-17.17-13.44-1.75-.92-1.9.16-1.9,1.39-.05,11.25-2.16,22.21-4.55,33.14-1.28,5.87-3.29,11.1-7.73,15.67A173.2,173.2,0,0,0,25.81,99c-6.68,11.62-12.24,23.64-14.9,37-1.83,9.17,1.84,15.58,8.21,21.25a7.48,7.48,0,0,0,7,1.65,24.65,24.65,0,0,0,6.21-2.12c5.85-3.12,9.79-8.19,13.6-13.36,1.15-1.56,1.95-1.81,3.38-.32,3.24,3.36,6.66,6.56,10,9.88a4.64,4.64,0,0,0,4.22,1.31,52.18,52.18,0,0,0,14.76-4.09c11.25-4.8,21.06-11.43,28.08-21.68,4.86-7.1,6.92-14.35,1.28-22.07a29.82,29.82,0,0,1-1.64-2.86c-3.34-5.74-7.91-9.73-14.75-10.77A8,8,0,0,1,87,91.47a5.23,5.23,0,0,1,.74-.8c.83-.57,1.66-1.15,2.53-1.64,11.65-6.56,23.3-13.11,33.84-21.43,6.5-5.14,12.6-10.67,17.29-17.56C144.42,45.55,146.92,40.68,144.58,35.16ZM28.87,129.69a48,48,0,0,1,7.64-16A65.53,65.53,0,0,1,28.87,129.69Zm61.45-19.35c4.15,1.09,4.36,1.66,1.77,5.15-6,8.1-14.52,12.36-23.84,15.21-4.08,1.26-8.34,2-12.54,2.86-.88.19-2.05.55-2.63-.12s.29-1.63.71-2.41a267.64,267.64,0,0,0,11.63-24.21c.46-1.08.91-2.17,1.34-3.2,1.2.08,1.66.94,2.27,1.6a5.58,5.58,0,0,0,3.78,2A102.1,102.1,0,0,1,90.32,110.34Zm38.35-75.56c-5.54,7.58-12.77,13.35-20.42,18.59C98.89,59.78,89.37,66,79.9,72.22a18.3,18.3,0,0,1-2.19,1c2.21-5.78,2-11.69,7.06-15.78,11-8.88,22.32-17.23,35.48-22.71a28.22,28.22,0,0,1,7.1-2.06c.77-.11,1.73-.63,2.23.32S129.07,34.23,128.67,34.78Z" transform="translate(10 10)"/><path class="cls-1" d="M231.13,148.46c-4.17,1.36-8.22,3.12-12.57,3.89-.32-1.48.44-2.36.87-3.27q9.7-20.57,19.51-41.07c2.26-4.73,2.29-4.71-1.38-8.35q-9.17-9.09-18.29-18.21c-2.53-2.51-2.55-2.53-3.73.73-8.94,24.7-18,49.36-27.81,73.73-1.29,3.22-3.1,4.62-6.51,4.91-4.75.42-9.43,1.42-14.16,2.05-5.26.7-10.5,1.43-15.7,2.5-1.84.38-3,.15-1.8-2.23s2.11-4.85,3.2-7.26C162.2,135,170.68,113.76,179,92.43c.55-1.4.93-2.76-.35-4.12C171.28,80.49,163,73.71,155,65.84c-1,3.29-1.89,5.89-2.65,8.53-6.7,23.34-14.57,46.28-23.2,69-10.4,27.33-21.39,54.42-34.77,80.47-1,1.94-.49,3,1.19,4.11,4.55,3.12,9.35,6,13.34,9.75,2.41,2.29,3.26,1.22,4.39-1Q125.09,213.2,137,189.8c.52-1,.55-2.81,2.06-2.8,1.33,0,1.48,1.66,2,2.66a158.61,158.61,0,0,1,13.63,39.19c.18.89-.08,2,1.07,2.46,5.24,2,8.93,6,13,9.58,1.52,1.34,2.42,1.08,3.38-.6,1.64-2.85,3.45-5.59,5.12-8.42,9.7-16.45,18.18-33.55,26.71-50.62.94-1.88,2-3.57,4.15-4a80.68,80.68,0,0,1,9.76-1.37,13.59,13.59,0,0,0,10.93-6.21,107.31,107.31,0,0,0,8.69-14.05c1.19-2.47,3.74-5.15,1.35-7.81S233.64,147.64,231.13,148.46Zm-55.34,35.75c-3.09,6.71-6.21,13.42-9.3,20.14-.87,1.91-1.69,1.29-2.27-.08-2.66-6.23-5.79-12.23-9-18.2-.68-1.27-.25-1.76,1-1.91,6-.72,12-1.41,18.37-2.16C175.93,181.85,176.58,182.51,175.79,184.21Z" transform="translate(10 10)"/><rect class="cls-2" x="9.5" y="9.5" width="260" height="260"/></svg>